<?xml version="1.0" encoding="UTF-8" standalone="no"?>
<!-- Created with Inkscape (http://www.inkscape.org/) -->

<svg
   version="1.1"
   id="svg1"
   width="128"
   height="128"
   viewBox="0 0 128 128"
   xmlns="http://www.w3.org/2000/svg"
   xmlns:svg="http://www.w3.org/2000/svg">
  <defs
     id="defs1" />
  <g
     id="g1">
    <path
       style="opacity:1;fill:#00ff00;fill-opacity:1"
       id="path2"
       d="m 30.475075,32.259705 c 0,0.182722 0,0.365444 0,0.548166 0,0.433869 0.0087,0.59535 -0.02719,1.031657 -0.04916,0.597052 -0.133072,1.146426 -0.213506,1.745555 -0.299894,1.970916 -0.616835,3.942775 -0.758126,5.933286 -0.10978,1.546596 -0.09323,2.125792 -0.111021,3.678402 0.0035,3.349644 0.416804,6.675405 0.780422,9.999138 0.181614,1.5768 0.221971,3.16394 0.235014,4.749483 0.0525,6.012963 8.556109,5.938721 8.503612,-0.07424 v 0 c -0.01714,-1.869706 -0.07241,-3.740815 -0.28514,-5.600178 -0.327059,-2.988784 -0.710134,-5.978249 -0.730389,-8.989901 0.0095,-1.174982 -0.0035,-1.812169 0.07473,-2.973349 0.126916,-1.883564 0.445848,-3.746493 0.721966,-5.61173 0.05747,-0.442706 0.12272,-0.884472 0.172423,-1.328117 0.115757,-1.033245 0.161351,-2.069108 0.141145,-3.108171 0,-6.013191 -8.503937,-6.013191 -8.503937,0 z" />
    <path
       style="opacity:1;fill:#ff00ff;fill-opacity:1"
       id="path3"
       d="m 71.876357,33.180212 c -0.05605,0.310671 -0.08505,0.480421 -0.165527,0.841363 -0.123593,0.554289 -0.492428,2.055539 -0.592541,2.480841 -0.420327,1.785653 -0.432038,1.877063 -0.828617,3.69853 -0.130452,0.689737 -0.271681,1.377523 -0.391355,2.069212 -0.294053,1.699562 -0.479929,2.978534 -0.620259,4.713903 -0.179284,2.217069 -0.180249,4.439134 -0.180617,6.66125 0.06015,2.187919 -0.01735,4.375693 -0.09557,6.56197 -0.0072,0.197132 -0.01439,0.394264 -0.02158,0.591396 -0.219293,6.009191 8.278987,6.319318 8.49828,0.310127 v 0 c 0.0073,-0.199202 0.01454,-0.398404 0.02181,-0.597605 0.08179,-2.288093 0.160939,-4.577812 0.101001,-6.867601 -0.0012,-1.921997 -0.01209,-3.847432 0.133505,-5.765638 0.114798,-1.512488 0.26565,-2.545566 0.520492,-4.034104 0.105024,-0.613445 0.229248,-1.223449 0.343872,-1.835174 0.371229,-1.707886 0.390825,-1.834005 0.786225,-3.513619 0.351816,-1.494476 0.767788,-2.98146 0.956516,-4.5086 0.570105,-5.986105 -7.895526,-6.792356 -8.465631,-0.806251 z" />
    <path
       style="opacity:1;fill:#000000;fill-opacity:1"
       id="path5"
       d="m 57.684422,85.805425 c -0.542099,0.148998 -1.097104,0.257188 -1.626296,0.446994 -0.20533,0.07365 -1.127644,0.63611 -1.349494,0.765005 -0.616187,0.358007 -1.241977,0.699331 -1.857689,1.058156 -0.423915,0.24705 -0.843228,0.501916 -1.264842,0.752875 -1.276673,0.774253 -2.478671,1.66017 -3.659043,2.571817 -0.534623,0.412911 -0.923499,0.737583 -1.455128,1.126394 -0.138854,0.101552 -0.283004,0.195656 -0.424506,0.293485 -0.202841,0.110686 -0.386457,0.267506 -0.601757,0.357286 -0.0088,0.0037 0.01405,-0.01363 0.02294,-0.01707 0.234473,-0.09078 0.457051,-0.299437 0.706142,-0.265202 1.274928,0.175226 2.506238,0.585959 3.759357,0.878938 0.245928,0.281505 0.432059,0.629439 0.737784,0.844514 0.130841,0.09205 -0.112401,-0.299614 -0.173425,-0.447491 -0.140245,-0.339857 -0.278846,-0.68056 -0.430318,-1.015563 -0.538457,-1.19087 -1.145086,-2.34649 -1.754657,-3.501752 -0.488621,-0.891625 -0.976333,-1.784527 -1.508299,-2.651386 -0.367885,-0.599482 -0.580411,-0.911119 -0.958213,-1.48202 -3.322997,-5.011602 -10.410473,-0.312175 -7.087476,4.699428 v 0 c 0.256545,0.385972 0.494355,0.737179 0.738522,1.132565 0.458397,0.742296 0.874789,1.509311 1.295918,2.27298 0.374175,0.707662 0.620271,1.163002 0.980715,1.888071 0.158318,0.31847 0.316972,0.636945 0.463866,0.960844 0.03015,0.06648 0.81497,1.928704 0.833578,1.960104 0.334992,0.565298 0.750756,1.078653 1.126134,1.617983 1.334392,0.36723 2.63614,0.88565 4.003176,1.10169 0.325451,0.0514 0.627403,-0.20266 0.93479,-0.32131 0.125896,-0.0486 0.243347,-0.11687 0.36285,-0.17956 0.493606,-0.25895 0.964586,-0.55877 1.427677,-0.868185 0.230333,-0.162664 0.463708,-0.321104 0.690999,-0.487993 0.576796,-0.423515 0.906721,-0.700159 1.475353,-1.141813 0.919691,-0.71432 1.852028,-1.41467 2.847308,-2.022157 0.369957,-0.220899 0.737574,-0.445763 1.10987,-0.662697 0.662258,-0.385892 1.334613,-0.75426 1.997393,-1.139254 0.180539,-0.104872 0.362941,-0.206901 0.538566,-0.319807 0.008,-0.0051 -0.01796,-0.0061 -0.02694,-0.0091 -0.42299,0.09519 -0.84598,0.190375 -1.26897,0.285563 5.99791,-0.428422 5.39203,-8.910748 -0.60588,-8.482326 z" />
  </g>
</svg>
